<svg width="678" height="553" viewBox="0 0 678 553" fill="none" xmlns="http://www.w3.org/2000/svg">
<g id="Group 1">
<path id="path16552" d="M264.607 544.468H630.216V0.511H264.607V544.468Z" fill="white"/>
<path id="path16554" d="M593.872 250.273C593.872 286.369 564.611 315.632 528.515 315.632C492.417 315.632 463.156 286.369 463.156 250.273C463.156 214.177 492.417 184.915 528.515 184.915C564.611 184.915 593.872 214.177 593.872 250.273Z" fill="#F04531"/>
<path id="path16556" d="M677.853 423.36C648.068 394.619 571.733 374.169 482.247 374.169C366.837 374.169 273.279 408.179 273.279 450.132C273.279 492.083 366.837 526.093 482.247 526.093C571.733 526.093 648.068 505.644 677.853 476.903V423.36Z" fill="#9ED5F2"/>
<path id="path16558" d="M447.56 472.655C447.053 472.473 446.55 472.28 446.048 472.079C447.838 471.076 449.132 470.487 449.315 470.405L449.85 470.165L450.385 470.405C450.491 470.452 450.972 470.672 451.71 471.044C450.334 471.596 448.951 472.133 447.56 472.655ZM443.785 471.147C442.703 470.709 441.693 470.324 440.729 469.979C445.089 467.097 448.944 465.343 449.315 465.177L449.85 464.937L450.385 465.177C450.701 465.319 453.563 466.62 457.108 468.793C456.108 469.225 455.107 469.649 454.101 470.067C452.187 468.965 450.628 468.188 449.85 467.815C448.838 468.3 446.503 469.471 443.785 471.147V471.147ZM438.46 469.212C436.18 468.491 434.052 467.967 431.655 467.464C428.837 465.279 425.722 463.537 423.711 462.581C422.688 463.067 421.383 463.755 419.976 464.6C419.24 464.279 418.51 463.929 417.782 463.563C417.598 463.452 417.412 463.343 417.228 463.233C420.296 461.259 422.911 460.068 423.175 459.949L423.711 459.709L424.246 459.949C424.675 460.141 431.271 463.149 435.98 467.743C436.536 467.34 437.092 466.951 437.644 466.575C433.771 462.925 428.817 460.017 425.825 458.431C427.02 458.356 428.214 458.279 429.408 458.2C429.806 458.175 430.209 458.149 430.619 458.124C433.543 459.893 436.991 462.277 439.874 465.109C440.471 464.731 441.056 464.372 441.625 464.031C439.245 461.745 436.522 459.688 433.911 457.944C436.208 457.829 438.632 457.724 441.148 457.613C440.647 458.025 440.159 458.452 439.693 458.891C440.203 459.293 440.708 459.705 441.205 460.129C442.215 459.119 443.359 458.224 444.467 457.464C447.689 457.316 451.03 457.145 454.412 456.921C455.76 457.783 457.233 458.867 458.495 460.129C458.992 459.705 459.497 459.293 460.005 458.891C459.192 458.124 458.309 457.393 457.403 456.709C458.653 456.613 459.908 456.511 461.163 456.396C461.488 456.687 461.808 456.983 462.12 457.287C462.663 456.895 463.204 456.515 463.742 456.147C465.783 455.936 467.819 455.695 469.829 455.417C466.204 457.544 461.734 460.517 458.075 464.031C458.644 464.372 459.229 464.731 459.827 465.109C466.041 459.003 474.884 454.977 475.455 454.721L475.989 454.481L476.524 454.721C476.804 454.847 479.076 455.88 482.051 457.621C480.9 457.952 479.804 458.34 478.735 458.769C477.52 458.108 476.551 457.628 475.989 457.357C474.031 458.3 467.12 461.803 462.056 466.575C462.064 466.579 462.072 466.584 462.079 466.589C461.135 467.019 460.187 467.444 459.236 467.864C455.011 465.119 451.215 463.235 449.85 462.584C448.272 463.336 443.444 465.737 438.46 469.212V469.212ZM449.85 459.709L450.333 459.927L450.384 459.948C450.681 460.083 452.8 461.044 455.728 462.675C455.995 462.409 456.265 462.145 456.539 461.885C454.483 459.883 451.611 458.213 449.85 457.357C448.09 458.213 445.217 459.883 443.16 461.885C443.435 462.145 443.705 462.409 443.972 462.675C446.899 461.044 449.018 460.083 449.316 459.948L449.365 459.927L449.85 459.709ZM426.867 466.528C426.173 466.397 425.449 466.261 424.688 466.119C423.923 465.975 423.167 465.776 422.419 465.535C422.776 465.359 423.039 465.239 423.175 465.177L423.711 464.937L424.246 465.177C424.566 465.32 425.575 465.788 426.867 466.528ZM470.332 462.713C473.033 461.051 475.213 460.057 475.455 459.949L475.989 459.709L476.276 459.837C474.806 460.517 473.344 461.253 471.814 461.996C471.32 462.236 470.827 462.475 470.332 462.713V462.713ZM415.395 462.144C414.571 461.655 413.744 461.164 412.914 460.671C413.723 460.096 414.528 459.555 415.311 459.053C417.223 458.948 419.134 458.839 421.047 458.724C419.472 459.577 417.468 460.74 415.395 462.144ZM411.125 459.608C410.953 459.507 410.783 459.404 410.611 459.303C410.947 459.285 411.284 459.268 411.62 459.251C411.455 459.369 411.291 459.488 411.125 459.608ZM484.617 456.921C482.617 455.655 480.743 454.591 479.219 453.771C481.532 453.264 483.777 452.685 485.923 452.021C485.339 452.525 484.767 453.044 484.215 453.575C484.784 453.916 485.369 454.276 485.967 454.653C487.807 452.845 489.879 451.219 491.897 449.819C493.761 449.003 495.508 448.096 497.114 447.084C497.158 447.056 497.202 447.028 497.246 447C498.098 446.457 498.828 445.943 499.446 445.452C498.592 447.261 497.209 448.972 495.641 450.499C493.499 451.841 491.155 453.484 489.047 455.343C487.651 456 486.152 456.487 484.617 456.921" fill="#8AB8DB"/>
<path id="path16560" d="M442.976 412.371C442.629 412.217 442.284 412.064 441.937 411.911C445.584 409.368 449.009 407.807 449.315 407.669L449.849 407.429L450.385 407.669C450.512 407.727 451.187 408.033 452.196 408.559C451.141 409.06 450.021 409.609 448.72 410.171C446.829 410.988 444.912 411.719 442.976 412.371ZM439.899 411.015C438.98 410.613 438.059 410.215 437.139 409.82C442.747 405.428 448.844 402.653 449.315 402.441L449.849 402.201L450.385 402.441C450.723 402.593 453.967 404.069 457.848 406.519C456.612 406.755 455.527 407.108 454.461 407.541C452.383 406.329 450.676 405.476 449.849 405.079C448.373 405.788 444.088 407.952 439.899 411.015ZM435.125 408.964C434.215 408.58 433.3 408.197 432.388 407.821C432.875 407.408 433.369 407.004 433.867 406.611C430.672 403.603 426.411 401.144 423.836 399.907L429.032 399.775C431.221 401.099 433.803 402.884 435.98 405.008C436.536 404.605 437.092 404.216 437.644 403.839C436.021 402.311 434.211 400.913 432.433 399.688L436.693 399.579C437.792 400.451 438.867 401.385 439.873 402.373C440.471 401.996 441.056 401.636 441.625 401.296C440.985 400.681 440.32 400.084 439.64 399.504L443.429 399.407C443.612 399.583 443.793 399.761 443.972 399.94C444.333 399.739 444.683 399.547 445.017 399.367L454.244 399.132C454.709 399.379 455.205 399.649 455.728 399.94C455.995 399.673 456.265 399.411 456.539 399.151C456.513 399.125 456.487 399.1 456.461 399.075L460.7 398.967C459.796 399.712 458.913 400.489 458.075 401.296C458.644 401.636 459.229 401.996 459.827 402.373C461.104 401.119 462.495 399.951 463.9 398.885L468.647 398.764C466.447 400.192 464.101 401.912 462.056 403.839C462.608 404.216 463.163 404.605 463.719 405.008C466.583 402.215 470.144 400.008 472.592 398.664L479.083 398.499C480.005 398.997 481.109 399.629 482.287 400.38C480.968 400.565 479.709 400.817 478.488 401.147C477.557 400.624 476.704 400.185 475.989 399.847C473.627 400.969 469.741 403.176 466.605 405.912C465.244 406.152 463.745 406.197 461.645 406.197C461.605 406.197 461.564 406.197 461.524 406.197C461.516 406.197 461.509 406.197 461.501 406.197C461.279 406.197 461.061 406.201 460.849 406.207C456.005 402.877 451.387 400.581 449.849 399.849C447.919 400.769 441.121 404.159 435.125 408.964V408.964ZM432.281 407.777C428.589 406.255 424.884 404.801 421.172 403.447C422.161 402.907 422.908 402.561 423.175 402.441L423.711 402.201L424.245 402.441C424.968 402.767 429.223 404.751 432.281 407.777ZM418.8 402.596C417.765 402.231 416.732 401.873 415.696 401.525C416.456 400.992 417.208 400.501 417.925 400.057L423.571 399.913C422.284 400.532 420.58 401.453 418.8 402.596V402.596ZM413.452 400.785C412.857 400.592 412.263 400.403 411.667 400.216L414.328 400.149C414.036 400.356 413.744 400.568 413.452 400.785ZM484.896 399.815C484.179 399.316 483.465 398.845 482.772 398.404L487.277 398.289C487.553 398.491 487.832 398.697 488.108 398.907C488.003 398.933 487.897 398.961 487.793 398.988C486.741 399.26 485.776 399.536 484.896 399.815V399.815ZM490.465 398.311C490.424 398.277 490.383 398.244 490.34 398.212L490.925 398.197C490.772 398.235 490.619 398.272 490.465 398.311Z" fill="#95CAE8"/>
<path id="path16562" d="M573.571 465.62C573.041 465.3 572.521 464.972 572.011 464.635C573.72 463.396 575.417 462.365 576.808 461.589C575.825 463.16 574.844 464.787 573.571 465.62ZM570.339 463.484C569.599 462.955 568.875 462.408 568.163 461.847C573.679 457.601 579.552 454.928 580.013 454.721L580.548 454.481L581.083 454.721C581.332 454.832 583.144 455.657 585.625 457.056C585.24 457.039 584.856 457.027 584.471 457.027C583.295 457.027 582.12 457.137 580.929 457.544C580.787 457.473 580.66 457.412 580.548 457.357C579.041 458.083 574.609 460.32 570.339 463.484V463.484ZM566.635 460.605C563.924 458.345 561.357 455.891 558.724 453.38C557.401 452.119 555.935 450.579 554.38 449.265L554.408 449.253L554.944 449.493C555.373 449.685 561.969 452.693 566.679 457.287C567.235 456.884 567.791 456.495 568.341 456.119C563.277 451.348 556.368 447.844 554.408 446.901C553.985 447.105 553.332 447.428 552.517 447.856C552.353 447.748 552.187 447.644 552.021 447.545C551.293 447.112 550.424 446.788 549.501 446.504C551.895 445.164 553.631 444.375 553.873 444.265L554.408 444.025L554.944 444.265C555.515 444.521 564.356 448.548 570.571 454.653C571.168 454.276 571.753 453.916 572.323 453.575C565.8 447.312 556.695 442.761 554.408 441.673C553.249 442.225 550.336 443.668 546.896 445.772C545.949 445.504 545.033 445.213 544.235 444.831C541.588 443.561 540.648 442.093 540.036 440.467C541.551 441.596 543.056 442.845 544.431 444.197C545.029 443.82 545.615 443.46 546.184 443.119C543.964 440.988 541.447 439.056 539 437.391C538.696 436.62 538.303 435.824 537.711 435.007C535.972 432.609 530.383 431.204 527.663 429.744C527.303 429.549 526.945 429.34 526.591 429.117C527.215 428.816 527.617 428.633 527.735 428.581L527.784 428.559L528.268 428.341L528.753 428.559L528.803 428.581C529.101 428.715 531.22 429.677 534.147 431.307C534.413 431.041 534.684 430.777 534.957 430.519C532.901 428.515 530.029 426.845 528.268 425.989C527.343 426.44 526.109 427.115 524.849 427.945C524.093 427.409 523.337 426.852 522.569 426.316C524.943 424.644 527.223 423.583 527.733 423.353L528.268 423.113L528.804 423.353C529.532 423.68 533.849 425.695 536.913 428.761C537.411 428.337 537.916 427.925 538.425 427.523C535.179 424.464 530.831 421.975 528.268 420.759C526.389 421.651 523.551 423.228 520.888 425.212C520.051 424.703 519.188 424.253 518.283 423.912C522.596 420.465 527.371 418.288 527.733 418.125L528.268 417.885L528.804 418.125C529.233 418.319 535.831 421.325 540.539 425.92C541.095 425.516 541.651 425.127 542.203 424.751C537.139 419.98 530.228 416.476 528.268 415.535C526.52 416.376 520.827 419.257 516.023 423.259C514.968 423.016 513.867 422.831 512.74 422.679C516.719 418.959 521.576 416.069 524.669 414.421C526.995 414.417 529.32 414.379 531.645 414.304C534.887 416.015 540.253 419.18 544.431 423.285C545.029 422.908 545.615 422.548 546.184 422.208C542.836 418.993 538.807 416.229 535.369 414.153C537.137 414.064 539.053 413.917 541.071 413.747C540.869 413.928 540.671 414.111 540.475 414.295C541.027 414.671 541.581 415.06 542.137 415.464C542.865 414.755 543.637 414.083 544.425 413.453C546.099 413.305 547.817 413.152 549.561 413.011C547.756 414.164 545.868 415.545 544.252 417.067C544.761 417.469 545.267 417.881 545.764 418.305C548.827 415.239 553.144 413.225 553.873 412.897L554.391 412.665C554.401 412.665 554.412 412.664 554.421 412.664L554.944 412.897C555.672 413.225 559.989 415.239 563.052 418.305C563.551 417.881 564.056 417.469 564.564 417.067C562.692 415.303 560.453 413.728 558.403 412.479C559.512 412.443 560.615 412.423 561.705 412.423C562.157 412.423 562.607 412.427 563.055 412.433C564.297 413.34 565.543 414.356 566.679 415.464C567.235 415.06 567.791 414.671 568.341 414.295C567.707 413.696 567.041 413.117 566.361 412.56C569.155 412.737 571.796 413.097 574.171 413.723C570.585 415.839 566.219 418.764 562.633 422.208C563.203 422.548 563.788 422.908 564.385 423.285C568.184 419.555 572.963 416.599 576.236 414.807C576.579 416.011 576.521 417.003 576.184 417.853C573.295 419.521 569.628 421.912 566.615 424.751C566.744 424.839 566.875 424.928 567.004 425.019C566.831 425.191 566.665 425.371 566.509 425.556C567.372 426.512 568.843 427.237 570.723 427.787C571.12 428.105 571.515 428.429 571.904 428.761C572.087 428.579 572.275 428.399 572.467 428.223C573.533 428.452 574.692 428.639 575.915 428.791C575.189 429.327 574.487 429.907 573.859 430.519C574.133 430.777 574.404 431.041 574.671 431.307C576.473 430.303 577.971 429.552 578.923 429.092C580.123 429.185 581.359 429.255 582.612 429.305C583.557 429.771 584.879 430.445 586.425 431.307C586.692 431.041 586.963 430.777 587.237 430.519C586.84 430.131 586.412 429.757 585.968 429.399C587.081 429.416 588.193 429.424 589.291 429.424C590.4 429.424 591.493 429.416 592.559 429.405C591.248 430.427 589.968 431.516 588.773 432.663C589.343 433.004 589.928 433.364 590.525 433.741C592.169 432.125 593.999 430.655 595.809 429.361C597.595 429.335 599.236 429.309 600.649 429.307C598.1 430.877 595.211 432.892 592.755 435.207C593.307 435.583 593.861 435.972 594.417 436.376C597.789 433.087 602.128 430.611 604.479 429.399C606.143 429.48 607.8 429.58 609.452 429.689C611.887 430.983 615.837 433.331 618.959 436.376C619.515 435.972 620.069 435.583 620.621 435.207C618.513 433.221 616.087 431.455 613.829 430.003C615.539 430.129 617.245 430.26 618.949 430.384C619.557 430.848 620.161 431.332 620.753 431.833V430.512C620.767 430.513 620.783 430.513 620.796 430.515V449.503C620.545 449.579 620.296 449.655 620.047 449.727C614.42 445.485 608.473 442.524 606.688 441.673V444.025L607.223 444.265C607.645 444.455 612.619 446.719 617.695 450.367C616.845 450.579 616.023 450.761 615.239 450.913C615.232 450.915 615.227 450.916 615.221 450.917C615.203 450.92 615.185 450.924 615.168 450.927C615.149 450.931 615.129 450.935 615.111 450.937C615.105 450.939 615.099 450.94 615.093 450.941C614.767 451.004 614.445 451.06 614.133 451.111C610.845 448.967 607.868 447.469 606.688 446.901V449.253L607.223 449.493C607.416 449.58 608.868 450.241 610.835 451.363C610.14 451.357 609.441 451.329 608.743 451.3C607.981 451.269 607.22 451.237 606.468 451.237C605.212 451.237 603.979 451.325 602.8 451.644C602.153 451.82 601.528 452.055 600.916 452.328C603.668 450.623 605.908 449.603 606.153 449.493L606.688 449.253V446.901C604.728 447.844 597.819 451.348 592.755 456.119C592.895 456.215 593.036 456.312 593.177 456.409C592.619 456.62 592.044 456.796 591.447 456.924C590.809 457.063 590.181 457.133 589.557 457.165C585.485 454.552 581.872 452.76 580.548 452.128C578.704 453.007 572.419 456.14 566.635 460.605V460.605ZM606.688 441.673C604.401 442.761 595.296 447.312 588.773 453.575C589.343 453.916 589.928 454.276 590.525 454.653C596.74 448.548 605.583 444.521 606.153 444.265L606.688 444.025V441.673V441.673ZM580.548 449.253L581.032 449.471L581.083 449.492C581.38 449.627 583.499 450.588 586.425 452.219C586.692 451.953 586.963 451.691 587.237 451.429C585.18 449.427 582.309 447.757 580.548 446.901C578.788 447.757 575.916 449.427 573.859 451.429C574.133 451.691 574.404 451.953 574.671 452.219C577.597 450.588 579.716 449.627 580.013 449.492L580.064 449.471L580.548 449.253ZM580.548 444.025L581.083 444.265C581.812 444.592 586.129 446.607 589.192 449.673C589.691 449.249 590.195 448.837 590.704 448.435C587.457 445.376 583.109 442.887 580.548 441.671C577.987 442.887 573.639 445.376 570.392 448.435C570.901 448.837 571.405 449.249 571.904 449.673C574.967 446.607 579.284 444.592 580.013 444.265L580.548 444.025ZM620.753 444.028C620.116 444.553 619.492 445.099 618.895 445.663C619.445 446.039 620.001 446.428 620.557 446.831C620.623 446.768 620.688 446.704 620.753 446.641V444.028V444.028ZM580.548 438.797L581.083 439.037C581.512 439.229 588.109 442.237 592.819 446.831C593.375 446.428 593.929 446.039 594.481 445.663C589.417 440.892 582.507 437.388 580.548 436.447C578.589 437.388 571.679 440.892 566.615 445.663C567.167 446.039 567.721 446.428 568.277 446.831C572.987 442.237 579.584 439.229 580.013 439.037L580.548 438.797V438.797ZM620.753 438.328C618.741 439.767 616.727 441.377 614.912 443.119C615.481 443.46 616.067 443.82 616.665 444.197C617.948 442.937 619.343 441.765 620.753 440.697V438.328V438.328ZM580.548 433.569L581.083 433.809C581.653 434.065 590.496 438.092 596.711 444.197C597.308 443.82 597.893 443.46 598.463 443.119C591.94 436.856 582.833 432.307 580.548 431.217C578.263 432.307 569.156 436.856 562.633 443.119C563.203 443.46 563.788 443.82 564.385 444.197C570.6 438.092 579.443 434.065 580.013 433.809L580.548 433.569V433.569ZM606.688 436.445V438.797L607.172 439.015L607.221 439.037C607.52 439.171 609.639 440.132 612.565 441.763C612.832 441.497 613.103 441.235 613.377 440.975C611.32 438.971 608.448 437.301 606.688 436.445V436.445ZM606.688 436.445C604.927 437.301 602.055 438.971 599.999 440.975C600.273 441.235 600.544 441.497 600.809 441.763C603.737 440.132 605.856 439.171 606.153 439.037L606.204 439.015L606.688 438.797V436.445V436.445ZM554.408 438.797L554.892 439.015L554.943 439.037C555.24 439.171 557.36 440.132 560.287 441.763C560.552 441.497 560.824 441.235 561.097 440.975C559.041 438.971 556.169 437.301 554.408 436.445C552.648 437.301 549.776 438.971 547.719 440.975C547.993 441.235 548.264 441.497 548.531 441.763C551.457 440.132 553.576 439.171 553.875 439.037L553.924 439.015L554.408 438.797ZM606.688 431.215V433.569L607.223 433.809C607.952 434.136 612.269 436.151 615.332 439.217C615.829 438.793 616.335 438.381 616.844 437.979C613.597 434.92 609.249 432.431 606.688 431.215ZM606.688 431.215C604.127 432.431 599.777 434.92 596.532 437.979C597.041 438.381 597.545 438.793 598.044 439.217C601.107 436.151 605.424 434.136 606.153 433.809L606.688 433.569V431.215ZM554.408 433.569L554.944 433.809C555.672 434.136 559.989 436.151 563.052 439.217C563.551 438.793 564.056 438.381 564.564 437.979C561.319 434.92 556.969 432.431 554.408 431.215C551.847 432.431 547.499 434.92 544.252 437.979C544.761 438.381 545.267 438.793 545.764 439.217C548.827 436.151 553.144 434.136 553.873 433.809L554.408 433.569V433.569ZM554.408 428.341L554.944 428.581C555.373 428.775 561.969 431.781 566.679 436.376C567.235 435.972 567.791 435.583 568.341 435.207C563.277 430.436 556.368 426.932 554.408 425.991C552.449 426.932 545.539 430.436 540.475 435.207C541.027 435.583 541.581 435.972 542.137 436.376C546.847 431.781 553.444 428.775 553.873 428.581L554.408 428.341V428.341ZM554.408 423.113L554.944 423.353C555.515 423.609 564.356 427.636 570.571 433.741C571.168 433.364 571.753 433.004 572.323 432.663C565.8 426.4 556.695 421.851 554.408 420.761C552.123 421.851 543.016 426.4 536.493 432.663C537.063 433.004 537.648 433.364 538.245 433.741C544.46 427.636 553.303 423.609 553.873 423.353L554.408 423.113V423.113ZM554.408 417.885L554.892 418.103L554.943 418.125C555.24 418.259 557.36 419.221 560.287 420.852C560.552 420.585 560.824 420.323 561.097 420.063C559.041 418.06 556.169 416.389 554.408 415.533C552.648 416.389 549.776 418.06 547.719 420.063C547.993 420.323 548.264 420.585 548.531 420.852C551.457 419.221 553.576 418.259 553.875 418.125L553.924 418.103L554.408 417.885ZM510.744 422.443C508.604 422.22 506.413 422.069 504.304 421.847C503.348 421.351 502.596 420.984 502.129 420.761C501.823 420.907 501.392 421.116 500.863 421.383C500.859 421.381 500.853 421.381 500.849 421.38C499.468 421.137 498.116 420.868 496.804 420.545C499.443 419.1 501.316 418.249 501.595 418.125L501.645 418.103L502.129 417.885L502.613 418.103L502.663 418.125C502.961 418.259 505.08 419.221 508.007 420.852C508.273 420.585 508.544 420.323 508.819 420.063C506.761 418.06 503.889 416.389 502.129 415.533C500.368 416.389 497.496 418.06 495.44 420.063C495.501 420.12 495.563 420.179 495.624 420.237C491.864 419.195 488.509 417.639 485.933 414.947C485.137 414.113 483.423 412.3 481.839 410.38C481.848 410.385 481.857 410.391 481.868 410.396C482.075 410.188 482.284 409.984 482.496 409.78C483.353 410.125 484.291 410.451 485.291 410.753C484.925 411.081 484.567 411.413 484.215 411.752C484.784 412.092 485.369 412.452 485.967 412.829C486.476 412.329 487.004 411.841 487.544 411.369C488.585 411.627 489.673 411.86 490.792 412.067C489.897 412.772 489.023 413.516 488.196 414.295C488.747 414.671 489.303 415.06 489.859 415.464C490.971 414.379 492.189 413.381 493.405 412.489C493.868 412.555 494.331 412.615 494.797 412.671C495.648 412.772 496.503 412.868 497.36 412.961C495.531 414.124 493.612 415.523 491.973 417.067C492.481 417.469 492.987 417.881 493.484 418.305C495.921 415.865 499.152 414.092 500.739 413.304C501.853 413.409 502.976 413.509 504.1 413.6C505.808 414.491 508.604 416.135 510.773 418.305C511.271 417.881 511.776 417.469 512.285 417.067C511.069 415.921 509.7 414.856 508.327 413.908C509.869 414.007 511.419 414.092 512.972 414.164C513.461 414.581 513.939 415.015 514.4 415.464C514.956 415.06 515.511 414.671 516.063 414.295C516.06 414.292 516.056 414.289 516.053 414.285C517.62 414.339 519.192 414.376 520.765 414.399C517.419 416.444 513.572 419.117 510.355 422.208C510.484 422.285 510.613 422.363 510.744 422.443" fill="#8AB8DB"/>
<path id="path16564" d="M503.261 294.584C498.504 293.648 493.985 292.411 489.252 291.327C478.152 288.785 468.188 285.096 457.715 281.329C449.619 278.417 440.837 277.64 432.764 274.116C428.643 272.319 427.513 271.103 422.565 273.587C421.344 274.199 421.608 276.107 420.401 276.684C419.904 276.923 419.248 276.825 418.6 276.728C417.963 276.631 417.333 276.535 416.872 276.76C415.081 277.632 413.492 277.333 412.2 279.341C404.777 275.677 399.811 269.744 390.753 275.371C384.223 279.428 381.405 287.036 373.108 287.883C368.529 288.349 364.307 287.245 360.252 286.883C355.341 286.443 352.757 288.811 347.408 289.3C341.433 289.847 339.407 290.521 333.999 292.336C329.643 293.8 324.921 294.612 320.431 294.98C315.161 295.412 311.249 296.511 306.551 296.472C301.419 296.429 296.284 295.567 291.244 294.98C281.167 293.808 271.992 290.944 262.173 288.92C253.576 287.148 244.971 286.012 236.505 283.833C232.349 282.761 228.451 280.271 224.247 279.797C218.737 279.175 216.543 282.608 211.989 283.845C201.957 286.572 194.324 283.96 184.555 281.833C175.373 279.833 166.716 277.775 158.128 274.355C153.589 272.548 150.972 270.772 146.06 270.155C141.379 269.567 135.928 269.412 131.407 268.156C122.983 265.816 116.989 257.459 109.386 253.872C106.036 252.292 100.876 251.719 96.9985 252.975C92.5099 254.429 90.7756 258.92 86.4616 261.083C82.6933 262.972 77.0678 262.377 73.4902 264.475C69.0542 267.075 68.4121 269.915 63.1261 271.573C57.2766 273.409 56.1074 271.527 50.3318 271.167C45.0011 270.835 41.8001 273.893 37.46 275.243C34.2845 276.228 32.9766 276.173 29.8418 277.773C27.0241 279.209 26.9714 279.701 23.4512 280.303C18.8678 281.085 13.8485 280.369 9.44222 281.315L0.198486 317.38V353.991C41.8954 353.244 182.977 351.892 201.468 355.715C209.221 357.317 216.879 360.333 224.843 360.807C228.575 361.029 232.363 360.807 236.149 360.583C238.992 360.416 241.833 360.249 244.652 360.269C261.64 360.397 277.275 360.087 294.133 358.103C309.892 356.249 325.06 352.581 340.252 348.527C360.759 343.053 379.769 334.889 400.673 330.408C418.32 326.624 435.924 323.919 453.644 320.679C472.381 317.253 489.139 310.473 505.011 301.435C513.437 296.636 511.197 296.147 503.261 294.584" fill="#3A8FCE"/>
<path id="path16566" d="M677.853 320.365L677.487 319.435C671.707 318.34 666.436 315.177 660.524 314.04C654.559 312.893 647.791 311.763 642.061 310.717C629.473 308.42 619.323 304.388 608.152 298.361C598.229 293.005 585.871 288.285 576.493 281.739C567.583 275.519 558.235 267.621 548.425 262.779C543.62 260.407 535.877 257.659 530.395 259.167C527.231 260.039 526.923 262.3 524.345 263.183C519.22 264.937 519.843 263.228 516.793 263.143C509.055 262.929 508.048 263.775 502.481 268.985C497.923 273.253 494.788 274.827 488.608 277.1C482.184 279.463 478.891 282.972 473.075 286.012C468.196 288.561 460.264 290.367 454.745 292.584C443.092 297.271 430.585 299.424 418.679 303.761C410.505 306.739 406.651 308.719 397.475 307.043C389.441 305.575 386.489 302.253 378.751 303.973C371.127 305.667 370.673 307.895 362.501 303.409C357.68 300.764 352.591 297.749 348.205 294.885C338.44 288.508 320.8 276.744 308.301 275.715C293.729 274.512 292.947 284.507 279.845 288.148C270.228 290.82 256.631 289.088 247.833 294.884C243.139 297.975 240.064 299.949 235.223 302.427C229.576 305.319 228.375 308.779 223.78 312.516C217.609 317.533 204.245 314.153 191.223 310.773C176.428 306.933 162.076 303.092 159.219 311.568C145.361 312.208 132.589 309.199 119.22 306.312C105.839 303.423 95.3646 296.817 83.7938 292.183C78.1449 289.919 72.3438 288.317 66.4365 285.587C61.7225 283.407 52.7151 279.784 47.6631 282.284C44.8766 283.663 38.9949 291.609 36.9355 293.689C31.9933 298.676 29.8564 300.068 22.737 302.424C16.3522 304.537 9.80689 308.089 3.31369 309.383C2.28449 309.587 1.24329 309.749 0.198486 309.897V399.896C8.70222 402.965 19.9698 403.377 28.2892 403.751C48.7599 404.672 70.1771 404.349 90.5522 402.748C134.749 399.268 178.46 398.3 222.827 398.3C283.441 398.3 343.804 395.789 404.363 394.457C437.052 393.737 469.771 394.193 502.485 394.651C525.161 394.967 547.836 395.283 570.499 395.208C607.525 395.085 641.98 395.553 677.853 391.103V320.365" fill="#23407B"/>
<path id="path16568" d="M535.316 258.8C533.579 258.668 531.9 258.753 530.395 259.167C527.231 260.039 526.923 262.3 524.345 263.183C519.22 264.937 519.843 263.228 516.793 263.143C509.055 262.929 508.048 263.775 502.481 268.985C497.923 273.253 494.788 274.827 488.608 277.1C482.184 279.463 478.891 282.972 473.075 286.012C468.196 288.561 460.264 290.367 454.745 292.584C443.092 297.271 430.585 299.424 418.679 303.761C410.505 306.739 406.651 308.719 397.475 307.043C389.441 305.575 386.489 302.253 378.751 303.973C371.127 305.667 370.673 307.895 362.501 303.409C357.68 300.764 352.591 297.749 348.205 294.885C338.44 288.508 320.8 276.744 308.301 275.715C307.985 275.688 307.683 275.675 307.379 275.659C305.095 276.5 303.583 278.244 303.048 280.556C302.172 283.593 303.924 288.148 302.172 289.667C294.292 295.739 285.537 298.776 288.164 309.404C288.164 310.163 286.413 311.683 285.537 311.683C269.776 308.645 264.523 320.032 261.02 330.66C259.269 334.457 253.141 334.457 251.389 336.735C233.387 366.443 202.669 388.123 167.676 398.92C186 398.472 204.357 398.3 222.827 398.3C271.429 398.3 319.871 396.688 368.381 395.36C377.625 389.051 385.825 381.079 394.983 373.933C396.733 371.656 401.987 373.175 405.489 370.896C415.996 364.823 424.752 359.509 436.135 354.955C445.765 351.159 451.895 342.807 460.651 336.735C462.401 335.216 465.904 335.216 465.904 334.457C471.156 328.384 467.655 317.755 476.411 316.996C486.917 316.237 493.921 309.404 499.175 302.572C502.677 298.016 513.184 300.295 514.936 294.221C516.687 286.629 518.437 277.52 528.944 276.76C529.82 276.76 531.571 274.483 531.571 272.205C533.321 272.205 535.073 272.205 535.949 272.205C537.571 267.985 533.188 263.115 535.316 258.8" fill="#266AB9"/>
<path id="path16570" d="M471.025 390.629C463.949 387.765 462.56 379.64 452.868 378.841C452.121 378.779 451.356 378.919 450.573 379.059C449.461 379.259 448.317 379.457 447.145 379.076C445.351 378.495 444.647 376.236 442.968 375.591C441.165 374.899 438.489 374.905 435.951 374.913C434.231 374.917 432.575 374.923 431.297 374.709C429.589 374.424 428.711 373.567 426.828 373.419C425.892 373.345 425.068 373.64 424.264 373.935C423.192 374.327 422.159 374.719 420.949 374.241C417.883 373.025 416.944 367.683 417.792 364.981C414.584 362.131 411.148 362.144 407.672 362.156C405.281 362.165 402.872 362.175 400.507 361.251C397.232 359.975 395.983 357.821 393.873 356.479C391.737 355.121 387.721 353.295 384.629 352.653C385.187 345.156 375.513 345.513 371.569 342.153C369.367 340.276 369.124 338.645 365.819 336.917C362.813 335.348 360.771 333.657 358.483 331.577C354.773 328.204 350.437 321.559 345.091 320.988C343.463 320.815 342.027 321.472 340.733 322.129C339.511 322.752 338.415 323.373 337.405 323.293C334.608 323.071 332.385 319.616 330.625 317.913C327.832 320.185 324.58 321.465 321.757 323.763C320.805 324.537 318.456 327.245 317.476 327.655C316.144 328.211 314.785 327.997 313.817 327.784C313.201 327.648 312.741 327.512 312.545 327.575C308.496 328.857 307.084 333.269 304.224 336.841C300.945 340.936 297.241 344.829 293.031 348.204C286.184 353.692 279.101 356.48 271.981 361.528C266.391 365.491 260.873 369.829 255.504 374.123C251.416 377.392 243.687 381.867 241.469 386.329C240.935 387.411 240.36 387.881 239.707 388.816C242.296 392.215 252.057 392.165 258.767 392.117C260.408 392.105 261.868 392.095 262.995 392.133C271.979 392.439 280.312 394.021 289.021 395.047C298.911 396.215 309.935 395.06 319.273 397.727C325.14 399.403 339.077 398.848 343.163 401.963L539.013 396.972C532.371 396.616 476.739 392.941 471.025 390.629" fill="#245598"/>
<path id="path16572" d="M359.308 367.1C359.308 366.341 357.557 364.823 358.433 364.064C366.313 357.991 363.685 351.159 358.433 344.325C357.995 343.945 357.12 344.325 356.244 344.705C355.368 345.084 354.492 345.464 354.055 345.084C351.428 340.529 349.677 337.493 344.424 334.457C341.024 332.688 341.319 326.8 338.34 323.189C338.02 323.273 337.708 323.317 337.405 323.293C334.608 323.071 332.385 319.616 330.625 317.913C327.832 320.185 324.58 321.465 321.757 323.763C320.805 324.537 318.456 327.245 317.476 327.655C316.144 328.211 314.785 327.997 313.817 327.784C313.201 327.648 312.741 327.512 312.545 327.575C308.496 328.857 307.084 333.269 304.224 336.841C300.945 340.936 297.241 344.829 293.031 348.204C286.184 353.692 279.101 356.48 271.981 361.528C266.391 365.491 260.873 369.829 255.504 374.123C251.416 377.392 243.687 381.867 241.469 386.329C240.935 387.411 240.36 387.881 239.707 388.816C242.296 392.215 252.057 392.165 258.767 392.117C260.408 392.105 261.868 392.095 262.995 392.133C271.979 392.439 280.312 394.021 289.021 395.047C298.911 396.215 309.935 395.06 319.273 397.727C325.14 399.403 339.077 398.848 343.163 401.963L418.911 399.448C407.076 394.356 396.888 386.384 387.327 380.007C378.571 373.175 369.816 370.896 359.308 367.1" fill="#23407B"/>
<path id="path16574" d="M489.544 433.527C460.385 421.424 429.133 403.352 397.784 396.5C388.695 394.513 378.295 393.855 369.62 390.823C362.796 388.439 356.972 384.804 350.353 382.265C327.053 373.327 299.263 368.609 277.611 355.713C267.077 349.437 261.731 340.355 254.672 332.369C252.041 329.393 244.621 323.308 240.883 323.22C237.579 323.141 235.493 324.06 233.685 324.979C230.512 326.592 228.191 328.205 221.62 324.419C210.924 318.253 201.195 310.015 193.819 300.865C189.981 296.105 187.08 292.771 180.449 291.169C179.276 290.885 178.176 290.912 177.051 290.939C175.487 290.976 173.875 291.013 171.956 290.215C168.78 288.892 167.253 286.223 164.489 284.543C160.148 281.903 152.821 278.113 147.833 276.951C144.428 276.157 140.292 276.179 136.117 276.199C133.34 276.212 130.544 276.227 127.935 276.001C112.901 274.701 108.141 277.891 95.3646 284.144C89.7954 286.869 82.9537 288.712 78.0528 292.097C72.7684 295.748 70.1298 302.195 64.723 306.177C60.058 309.612 53.3829 311.589 48.2788 314.908C43.072 318.292 38.9418 322.029 34.4662 326.295C29.811 330.727 27.1996 333.625 20.2402 334.455C18.7777 334.628 17.3678 334.621 15.9892 334.615C13.8736 334.605 11.8298 334.595 9.77875 335.237C6.34222 336.312 5.28555 338.569 2.55475 339.617C1.84742 339.888 1.04595 340.068 0.198486 340.201V460.997C11.8048 463.008 23.6564 464.628 35.0824 466.608C57.6954 470.527 81.2318 469.056 104.103 470.54C126.499 471.992 148.423 472.625 170.903 472.625C215.944 472.625 260.748 469.487 305.629 466.756C328.169 465.385 350.239 460.627 372.853 460.46C391.759 460.321 410.551 459.436 429.408 458.2C448.685 456.937 480.677 457.552 497.245 447C508.032 440.131 499.424 437.629 489.544 433.527" fill="#23407B"/>
<g id="g16600">
<g id="g16602">
<path id="path16608" d="M489.544 433.527C460.385 421.424 429.133 403.352 397.784 396.5C388.695 394.513 378.295 393.855 369.62 390.823C362.796 388.439 356.972 384.804 350.353 382.265C327.053 373.327 299.263 368.609 277.611 355.713C267.077 349.437 261.731 340.355 254.672 332.369C252.041 329.393 244.621 323.308 240.883 323.22C237.579 323.141 235.493 324.06 233.685 324.979C230.512 326.592 228.191 328.205 221.62 324.419C210.924 318.253 201.195 310.015 193.819 300.865C189.981 296.105 187.08 292.771 180.449 291.169C179.276 290.885 178.176 290.912 177.051 290.939C175.487 290.976 173.875 291.013 171.956 290.215C168.78 288.892 167.253 286.223 164.489 284.543C160.148 281.903 152.821 278.113 147.833 276.951C145.596 276.429 143.04 276.26 140.367 276.211C154.496 287.257 161.583 303.351 175.215 313.2C190.1 323.069 190.1 335.216 197.104 347.361C199.731 352.676 212.865 350.4 217.243 354.195C224.247 361.787 218.993 377.729 230.376 381.524C247.887 386.079 264.523 389.117 282.909 391.395C290.791 392.152 292.541 403.54 297.795 403.54C323.187 404.3 344.2 415.688 366.965 424.037C386.227 430.869 406.365 433.148 428.255 436.184C432.632 436.944 436.135 439.98 440.512 441.499C458.627 445.987 477.219 447.568 495.936 447.784C496.38 447.528 496.823 447.271 497.245 447C508.032 440.131 499.424 437.629 489.544 433.527" fill="#3A8FCE"/>
</g>
</g>
<g id="g16634">
<g id="g16636">
<path id="path16642" d="M677.853 314.475C675.865 313.989 674.189 314.343 672.507 314.696C670.633 315.089 668.749 315.483 666.412 314.716C663.368 313.717 660.277 309.468 657.632 307.904C653.383 305.392 654.076 304.301 647.999 306.517C644.961 307.625 640.941 309.684 640.888 313.088C634.153 312.215 629.277 323.053 625.301 326.881C621.657 330.393 614.596 337.343 615.493 342.696C609.621 343.189 603.359 344.816 597.433 345.675C590.712 346.648 588.352 347.819 584.828 354.063C577.983 353.699 573.429 358.472 567.515 360.308C561.816 362.076 555.284 362.195 549.277 363.153C548.005 363.356 547.24 363.24 546.588 363.125C545.445 362.923 544.647 362.719 542.077 364.233C539.961 365.479 538.233 369.555 536.653 371.507C533.067 375.936 528.548 381.535 523.713 385.341C513.192 393.627 500.999 395.572 487.793 398.988C467.327 404.281 480.041 410.917 494.797 412.671C507.735 414.207 521.491 414.811 535.073 414.168C546.739 413.616 565.08 410.457 576.073 414.3C578.375 420.7 569.981 421.415 566.509 425.556C570.223 429.673 585.229 429.52 595.581 429.365C598.779 429.317 601.532 429.271 603.371 429.349C616.645 429.916 629.407 431.835 642.768 430.701C654.56 429.701 665.927 428.185 677.853 427.892V314.475" fill="#23407B"/>
<path id="path16644" d="M552.584 402.023C563.092 399.745 573.599 396.708 583.229 390.636C584.355 389.984 585.964 390.171 587.503 390.356C589.555 390.604 591.485 390.851 591.985 389.117C595.488 381.524 603.368 376.211 612.123 380.007C614.751 369.377 626.132 364.064 623.505 352.676C623.505 352.676 625.257 349.639 626.132 349.639C633.136 351.919 636.639 347.361 640.141 344.325C641.017 342.807 639.265 339.012 640.141 339.012C651.524 332.939 659.404 326.864 652.4 316.237C653.275 315.477 654.151 315.477 655.901 315.477C655.901 312.815 656.808 310.161 658.777 308.712C658.388 308.403 658.005 308.124 657.632 307.904C653.383 305.392 654.076 304.301 647.999 306.517C644.961 307.625 640.941 309.684 640.888 313.088C634.153 312.215 629.277 323.053 625.301 326.881C621.657 330.393 614.596 337.343 615.493 342.696C609.621 343.189 603.359 344.816 597.433 345.675C590.712 346.648 588.352 347.819 584.828 354.063C577.983 353.699 573.429 358.472 567.515 360.308C561.816 362.076 555.284 362.195 549.277 363.153C548.005 363.356 547.24 363.24 546.588 363.125C545.445 362.923 544.647 362.719 542.077 364.233C539.961 365.479 538.233 369.555 536.653 371.507C533.067 375.936 528.548 381.535 523.713 385.341C513.192 393.627 500.999 395.572 487.793 398.988C477.857 401.559 475.756 404.443 477.895 406.933C501.281 411.803 527.747 406.209 552.584 402.023" fill="#266AB9"/>
<path id="path16646" d="M677.853 504.371C676.207 503.297 673.896 503.299 671.443 504.067C669.709 504.609 668.913 504.9 666.992 505.251C665.639 505.496 662.972 506.107 662.265 507.26C660.459 506.024 656.093 508.125 654.661 509.532C653.604 508.773 652.384 509.186 651.241 509.601C650.508 509.865 649.808 510.131 649.203 510.086C646.843 509.919 645.132 508.396 642.776 508.805C640.28 509.241 639.449 510.692 637.223 511.614C635.404 512.367 632.609 512.56 630.511 512.649C629.393 512.698 628.385 513.165 627.001 512.865C625.971 512.643 625.165 511.702 624.025 511.652C622.979 511.605 622.513 512.492 621.469 512.614C619.903 512.796 618.788 512.237 617.371 511.855C616.144 511.524 615.813 510.98 614.232 511.084C612.929 511.168 611.843 512.275 610.671 512.309C609.868 512.333 608.089 511.484 607.161 511.343C605.791 511.135 604.837 511.1 603.368 510.779C600.579 510.168 598.377 510.144 595.252 510.273C593.96 510.327 591.757 510.696 590.52 510.341C589.16 509.953 588.569 509.096 587.316 508.812C586.287 508.58 585.153 508.668 584.024 508.757C582.724 508.859 581.429 508.961 580.311 508.573C579.156 508.172 576.407 506.543 575.415 505.719C573.789 504.367 574.251 502.505 572.665 501.283C570.62 499.707 568.268 500.777 566.593 498.943C565.065 497.271 566.263 496.144 564.849 494.635C564.567 494.331 562.833 493.507 562.2 492.919C561.313 492.099 560.945 491.803 560.259 490.845C558.912 488.964 559.405 487.425 556.977 486.543C555.193 485.895 553.533 486.22 551.921 485.092C550.147 483.851 544.353 479.491 542.597 481.451C540.488 480.38 538.101 480.749 535.879 480.279C533.456 479.765 532.028 479.123 529.28 479.243C529.208 479.567 529.027 479.92 528.965 480.184C526.775 479.939 525.488 477.431 522.816 477.165C520.513 476.936 518.431 476.784 516.315 476.66C514.407 476.548 512.473 477.191 510.471 477.833C508.268 478.539 505.983 479.245 503.553 478.951C500.153 478.537 500.536 478.547 498.591 480.723C497.223 482.252 495.323 483.788 493.623 484.763C491.253 486.125 487.652 486.924 484.221 487.524C476.201 487.401 469.596 485.252 462.179 482.871C453.756 480.168 445.004 477.687 436.319 475.023C432.528 472.739 428.803 470.109 425.16 467.944C419.215 464.413 412.824 460.62 406.395 456.797C399.961 452.972 395.341 447.531 389.308 443.384C385.333 440.651 384.357 439.927 379.484 438.743C375.427 437.755 372.179 436.289 368.963 433.793C366.427 431.824 362.529 428.367 360.852 425.568C358.061 420.912 358.563 419.615 351.015 419.901C350.091 416.039 345.732 417.608 342.724 416.46C340.003 415.423 337.825 413.112 335.151 411.753C329.776 409.028 324.845 404.255 318.795 402.881C318.451 402.804 318.007 402.988 317.505 403.172C316.961 403.372 316.351 403.572 315.729 403.436C315.151 403.309 313.739 401.763 312.941 401.392C310.849 400.417 309.657 398.912 307.133 398.723C305.564 398.605 301.939 399.497 300.731 399.619C299.949 399.696 299.357 399.647 298.785 399.597C297.868 399.519 297.003 399.44 295.491 399.883C292.736 400.691 291.981 403.004 289.637 403.747C289.233 403.873 287.763 403.835 286.301 403.795C285.008 403.761 283.721 403.727 283.188 403.807C277.601 404.66 275.488 405.807 269.747 404.301C265.572 403.207 261.24 402.815 257.519 400.657C254.197 398.731 251.517 395.853 248.324 393.669C242.341 389.58 237.648 382.749 234.771 376.437C232.999 372.552 233.997 368.937 233.033 364.797C232.103 360.8 228.383 358.228 227.168 354.195C225.917 350.044 228.233 346.629 222.509 344.455C220.333 343.628 218.636 343.629 217.152 343.631C214.849 343.633 213.063 343.635 210.808 340.541C208.108 336.836 207.153 334.159 201.483 332.532C196.416 331.08 193.201 331.067 188.608 328.879C185.243 327.277 182.728 325.081 179.303 323.32C175.488 321.359 171.057 322.049 167.191 321.68C159.863 320.976 146.751 322.812 140.179 325.841C136.324 327.619 132.865 329.823 130.413 332.94C126.893 337.419 125.032 337.775 120.361 341.011C116.205 343.889 116.096 346.389 113.795 350.032C112.41 352.22 110.927 352.804 108.675 354.347C107.166 355.38 104.843 357.495 103.417 358.256C95.7761 362.337 85.0886 357.344 77.8522 354.576C75.0709 353.513 70.2141 350.925 67.9454 349.019C66.0474 347.425 66.6834 345.62 63.7402 344.556C63.2752 344.388 62.037 344.499 60.7621 344.609C59.6085 344.709 58.4251 344.811 57.7574 344.704C53.1547 343.975 49.8856 338.936 46.2152 339.001C42.5741 339.067 43.3307 341.415 41.4303 342.54C39.3979 343.747 37.3569 343.825 35.2266 345.059C31.9194 346.973 31.4146 351.244 28.1183 353.332C26.7099 354.224 23.4085 355.101 22.2829 355.727C21.1938 356.332 19.2621 357.844 17.7605 358.864C14.0418 361.392 10.6788 366.4 6.46728 369.88C4.36782 370.319 2.27982 370.645 0.198486 370.889V552.017H677.853V504.371Z" fill="#36978A"/>
<path id="path16648" d="M677.853 504.371C676.207 503.297 673.896 503.299 671.443 504.067C669.709 504.609 668.913 504.9 666.992 505.251C665.639 505.496 662.972 506.107 662.265 507.26C660.459 506.024 656.093 508.125 654.661 509.532C653.604 508.773 652.384 509.186 651.241 509.601C650.508 509.865 649.808 510.131 649.203 510.086C646.843 509.919 645.132 508.396 642.776 508.805C640.28 509.241 639.449 510.692 637.223 511.614C635.404 512.367 632.609 512.56 630.511 512.649C629.393 512.698 628.385 513.165 627.001 512.865C625.971 512.643 625.165 511.702 624.025 511.652C622.979 511.605 622.513 512.492 621.469 512.614C619.903 512.796 618.788 512.237 617.371 511.855C616.144 511.524 615.813 510.98 614.232 511.084C612.929 511.168 611.843 512.275 610.671 512.309C609.868 512.333 608.089 511.484 607.161 511.343C605.791 511.135 604.837 511.1 603.368 510.779C600.579 510.168 598.377 510.144 595.252 510.273C593.96 510.327 591.757 510.696 590.52 510.341C589.16 509.953 588.569 509.096 587.316 508.812C586.287 508.58 585.153 508.668 584.024 508.757C582.724 508.859 581.429 508.961 580.311 508.573C579.156 508.172 576.407 506.543 575.415 505.719C573.789 504.367 574.251 502.505 572.665 501.283C570.62 499.707 568.268 500.777 566.593 498.943C565.065 497.271 566.263 496.144 564.849 494.635C564.567 494.331 562.833 493.507 562.2 492.919C561.313 492.099 560.945 491.803 560.259 490.845C558.912 488.964 559.405 487.425 556.977 486.543C555.193 485.895 553.533 486.22 551.921 485.092C550.147 483.851 544.353 479.491 542.597 481.451C540.488 480.38 538.101 480.749 535.879 480.279C533.456 479.765 532.028 479.123 529.28 479.243C529.208 479.567 529.027 479.92 528.965 480.184C526.775 479.939 525.488 477.431 522.816 477.165C520.513 476.936 518.431 476.784 516.315 476.66C514.407 476.548 512.473 477.191 510.471 477.833C508.268 478.539 505.983 479.245 503.553 478.951C500.153 478.537 500.536 478.547 498.591 480.723C497.223 482.252 495.323 483.788 493.623 484.763C491.253 486.125 487.652 486.924 484.221 487.524C476.201 487.401 469.596 485.252 462.179 482.871C453.756 480.168 445.004 477.687 436.319 475.023C432.528 472.739 428.803 470.109 425.16 467.944C419.215 464.413 412.824 460.62 406.395 456.797C399.961 452.972 395.341 447.531 389.308 443.384C385.333 440.651 384.357 439.927 379.484 438.743C375.427 437.755 372.179 436.289 368.963 433.793C366.427 431.824 362.529 428.367 360.852 425.568C358.061 420.912 358.563 419.615 351.015 419.901C350.091 416.039 345.732 417.608 342.724 416.46C340.003 415.423 337.825 413.112 335.151 411.753C329.776 409.028 324.845 404.255 318.795 402.881C318.451 402.804 318.007 402.988 317.505 403.172C316.961 403.372 316.351 403.572 315.729 403.436C315.151 403.309 313.739 401.763 312.941 401.392C311.553 400.747 310.555 399.871 309.307 399.297C306.895 403.048 305.155 407.788 302.172 410.372C301.297 411.892 297.795 411.132 295.168 411.132C295.168 421.001 286.413 426.315 275.905 426.315C274.153 426.315 274.153 428.593 273.279 429.353C272.403 433.148 275.905 437.703 273.279 441.499C270.652 443.776 269.776 446.813 268.025 449.089C262.772 458.2 256.643 465.792 252.265 474.903C249.639 479.457 251.389 485.532 248.763 490.087C240.008 506.028 230.376 522.729 215.492 534.876C207.833 540.912 200.032 546.698 191.879 552.017H677.853V504.371" fill="#266AB9"/>
<path id="path16650" d="M468.427 552.017C463.865 550.093 459.489 548.052 455.592 545.673C440.637 536.548 426.283 526.4 410.524 518.175C393.413 509.243 376.148 500.303 359.985 490.653C353.385 486.713 349.501 481.441 341.573 480.216C333.02 478.896 329.099 478.964 321.48 474.731C300.067 462.831 277.253 456.912 255.351 447.475C254.313 447.616 253.285 447.889 252.265 448.331C247.012 450.609 243.509 449.849 237.381 451.368C233.003 452.887 236.505 458.2 234.753 462.755C224.247 458.2 216.367 465.032 210.239 472.625C205.86 477.18 198.856 478.697 193.603 484.771C188.349 490.087 177.843 487.048 176.091 489.327C167.335 502.991 149.824 513.62 132.312 511.343C132.312 513.62 129.685 515.897 127.935 516.656C120.055 521.21 110.424 521.971 100.792 520.452C100.792 521.971 99.0408 523.488 98.1657 523.488C95.5386 524.248 93.787 522.729 91.9266 521.21C90.0662 519.692 88.096 518.175 85.0318 518.933C80.6542 520.452 79.7788 526.525 78.0272 526.525C51.8641 530.651 26.1032 535.819 0.198486 536.1V552.017H468.427Z" fill="#13172E"/>
</g>
</g>
</g>
</svg>
