<?xml version="1.0" encoding="utf-8"?>
<!-- Generator: Adobe Illustrator 16.0.0, SVG Export Plug-In . SVG Version: 6.00 Build 0)  -->
<!DOCTYPE svg PUBLIC "-//W3C//DTD SVG 1.1//EN" "http://www.w3.org/Graphics/SVG/1.1/DTD/svg11.dtd">
<svg version="1.1" id="Layer_1" xmlns="http://www.w3.org/2000/svg" xmlns:xlink="http://www.w3.org/1999/xlink" x="0px" y="0px"
	 width="120px" height="30px" viewBox="0 0 120 30" enable-background="new 0 0 120 30" xml:space="preserve">
<g>
	<path fill="#FFFFFF" d="M1.604,23.387V6.613h2.34l5.319,8.486c1.231,1.967,2.192,3.733,2.98,5.45l0.049-0.025
		c-0.197-2.239-0.246-4.279-0.246-6.893V6.613h2.02v16.774h-2.167l-5.271-8.511c-1.157-1.867-2.266-3.783-3.103-5.6L3.452,9.301
		c0.123,2.115,0.172,4.131,0.172,6.919v7.167H1.604z"/>
	<path fill="#FFFFFF" d="M26.409,15.522h-6.453v6.048h7.191v1.816h-9.334V6.613h8.964V8.43h-6.822v5.301h6.453V15.522z"/>
	<path fill="#FFFFFF" d="M32.618,18.11l-1.724,5.276h-2.216l5.64-16.774h2.586l5.665,16.774h-2.291l-1.773-5.276H32.618z
		 M38.061,16.419l-1.625-4.828c-0.37-1.096-0.616-2.092-0.862-3.062h-0.049c-0.247,0.995-0.518,2.016-0.837,3.036l-1.625,4.854
		H38.061z"/>
	<path fill="#FFFFFF" d="M45.009,6.837c1.084-0.224,2.635-0.349,4.113-0.349c2.291,0,3.768,0.423,4.803,1.369
		c0.837,0.747,1.305,1.892,1.305,3.186c0,2.215-1.379,3.683-3.128,4.28v0.074c1.281,0.448,2.044,1.643,2.438,3.384
		c0.542,2.34,0.936,3.957,1.28,4.605h-2.216c-0.271-0.473-0.64-1.916-1.108-4.008c-0.493-2.313-1.379-3.185-3.325-3.259h-2.02v7.267
		h-2.143V6.837z M47.152,14.478h2.192c2.291,0,3.744-1.27,3.744-3.186c0-2.166-1.552-3.111-3.817-3.137
		c-1.034,0-1.773,0.1-2.118,0.199V14.478z"/>
	<path fill="#FFFFFF" d="M58.262,6.613h8.941V8.43h-6.798v5.575h6.281v1.791h-6.281v7.591h-2.143V6.613z"/>
	<path fill="#FFFFFF" d="M84.445,14.825c0,5.774-3.473,8.835-7.709,8.835c-4.385,0-7.463-3.436-7.463-8.511
		c0-5.326,3.275-8.811,7.709-8.811C81.514,6.339,84.445,9.849,84.445,14.825z M71.564,15.099c0,3.583,1.92,6.794,5.295,6.794
		c3.398,0,5.32-3.16,5.32-6.968c0-3.334-1.725-6.818-5.297-6.818C73.338,8.106,71.564,11.416,71.564,15.099z"/>
	<path fill="#FFFFFF" d="M87.232,6.613h2.143V21.57h7.094v1.816h-9.236V6.613z"/>
	<path fill="#FFFFFF" d="M101.002,6.613v16.774h-2.143V6.613H101.002z"/>
	<path fill="#FFFFFF" d="M118.932,14.825c0,5.774-3.473,8.835-7.709,8.835c-4.383,0-7.461-3.436-7.461-8.511
		c0-5.326,3.275-8.811,7.707-8.811C116.002,6.339,118.932,9.849,118.932,14.825z M106.051,15.099c0,3.583,1.922,6.794,5.295,6.794
		c3.398,0,5.32-3.16,5.32-6.968c0-3.334-1.725-6.818-5.295-6.818C107.824,8.106,106.051,11.416,106.051,15.099z"/>
</g>
<rect x="0.268" y="0" fill="none" width="120" height="30"/>
</svg>
